<svg width="16" height="16" viewBox="0 0 16 16" fill="none" xmlns="http://www.w3.org/2000/svg">
<path fill-rule="evenodd" clip-rule="evenodd" d="M10.3448 0.958172C11.1226 0.858708 11.9096 1.17678 12.7092 1.92915L12.7101 1.93002C13.5124 2.68875 13.8776 3.45841 13.8228 4.24233C13.7699 4.99983 13.3307 5.64097 12.83 6.17001M12.83 6.17001L7.35937 11.9605C7.20515 12.1284 6.99749 12.2706 6.80062 12.3759C6.60123 12.4825 6.37059 12.5738 6.15406 12.6122L6.15073 12.6128L4.00483 12.9794C3.48445 13.0691 2.98545 12.939 2.62998 12.6019C2.27501 12.2653 2.11816 11.7744 2.17627 11.2514L2.17644 11.2499L2.42417 9.08054C2.45295 8.86474 2.53309 8.63122 2.62756 8.42864C2.72169 8.22679 2.85013 8.01276 3.00212 7.85096L3.00309 7.84993L8.47643 2.05659C8.97745 1.52734 9.59314 1.05429 10.3448 0.958172M9.20298 2.7437C9.2029 2.74379 9.20306 2.74362 9.20298 2.7437L3.73097 8.53564C3.73085 8.53576 3.73108 8.53552 3.73097 8.53564C3.67632 8.59395 3.60125 8.70678 3.53386 8.85129C3.46768 8.99319 3.42794 9.12446 3.41602 9.20884L3.17015 11.3618C3.17013 11.3621 3.1701 11.3623 3.17007 11.3625C3.14174 11.6192 3.22149 11.7847 3.3181 11.8763C3.4143 11.9676 3.58197 12.0375 3.83492 11.9939L3.83569 11.9938L5.98043 11.6274C6.06395 11.6123 6.19262 11.567 6.32913 11.494C6.46752 11.42 6.57162 11.3402 6.62373 11.2831L6.6297 11.2765L12.1031 5.48326C12.5489 5.01236 12.7966 4.58326 12.8253 4.1726C12.8521 3.78829 12.6941 3.29146 12.0235 2.6571C11.3567 2.02977 10.8537 1.90123 10.4716 1.95009C10.0633 2.0023 9.64853 2.27312 9.20298 2.7437Z" fill="black"/>
<path fill-rule="evenodd" clip-rule="evenodd" d="M7.84957 2.87261C8.12242 2.8301 8.37807 3.01683 8.42058 3.28968C8.672 4.90343 9.98168 6.1385 11.61 6.3025C11.8847 6.33017 12.085 6.57534 12.0574 6.85009C12.0297 7.12484 11.7845 7.32514 11.5098 7.29746C9.4314 7.08813 7.75442 5.50987 7.4325 3.44362C7.38999 3.17077 7.57672 2.91512 7.84957 2.87261Z" fill="black"/>
<path fill-rule="evenodd" clip-rule="evenodd" d="M1.49988 14.6666C1.49988 14.3905 1.72374 14.1666 1.99988 14.1666H13.9999C14.276 14.1666 14.4999 14.3905 14.4999 14.6666C14.4999 14.9428 14.276 15.1666 13.9999 15.1666H1.99988C1.72374 15.1666 1.49988 14.9428 1.49988 14.6666Z" fill="black"/>
</svg>
