<svg width="24" height="24" viewBox="0 0 24 24" fill="currentColor" xmlns="http://www.w3.org/2000/svg">
<path fill-rule="evenodd" clip-rule="evenodd" d="M5.33006 2.76001C4.6578 2.76001 4.06006 3.3103 4.06006 4.13V6.45001C4.06006 6.61289 4.11982 6.88228 4.2581 7.19049C4.39357 7.49245 4.57382 7.76307 4.75039 7.93964L4.76368 7.95327L8.60368 11.9933C8.61629 12.0066 8.62841 12.0203 8.64001 12.0345C8.90276 12.3549 9.14136 12.7775 9.31532 13.2131C9.48804 13.6456 9.62006 14.1484 9.62006 14.63V19.98C9.62006 20.9693 10.755 21.5824 11.6002 21.0655L13.0034 20.1598C13.3514 19.9352 13.8156 20.0352 14.0402 20.3833C14.2648 20.7313 14.1648 21.1955 13.8168 21.4201L12.4068 22.3302L12.3945 22.3379C10.6202 23.435 8.12006 22.2285 8.12006 19.98V14.63C8.12006 14.4016 8.05207 14.0944 7.92229 13.7694C7.79829 13.4589 7.63905 13.1851 7.49575 13.0049L3.68253 8.99307C3.35234 8.66061 3.08016 8.22943 2.88952 7.80449C2.7003 7.38272 2.56006 6.89713 2.56006 6.45001V4.13C2.56006 2.52971 3.78232 1.26001 5.33006 1.26001H18.6701C20.1943 1.26001 21.4401 2.50582 21.4401 4.03003V6.25C21.4401 6.79751 21.2722 7.36157 21.0548 7.83769C20.8366 8.31586 20.5373 8.77344 20.2104 9.10034C19.9175 9.39323 19.4426 9.39323 19.1497 9.10034C18.8568 8.80744 18.8568 8.33257 19.1497 8.03968C19.3228 7.86658 19.5285 7.56916 19.6903 7.21482C19.853 6.85843 19.9401 6.51249 19.9401 6.25V4.03003C19.9401 3.33423 19.3658 2.76001 18.6701 2.76001H5.33006Z"/>
<path fill-rule="evenodd" clip-rule="evenodd" d="M16.88 10.75C14.6742 10.75 12.88 12.5442 12.88 14.75C12.88 15.5003 13.091 16.2135 13.4575 16.8049L13.4636 16.8148L13.4635 16.8148C14.1539 17.9683 15.4249 18.75 16.88 18.75C18.3376 18.75 19.6064 17.9762 20.2952 16.8169L20.3 16.8089L20.3 16.8089C20.6703 16.2031 20.88 15.4978 20.88 14.75C20.88 12.5442 19.0858 10.75 16.88 10.75ZM11.38 14.75C11.38 11.7158 13.8458 9.25 16.88 9.25C19.9142 9.25 22.38 11.7158 22.38 14.75C22.38 15.7805 22.0907 16.7538 21.5824 17.5871C20.6307 19.1856 18.8807 20.25 16.88 20.25C14.8772 20.25 13.1297 19.174 12.1794 17.5901C11.6679 16.7626 11.38 15.7777 11.38 14.75Z" />
<path fill-rule="evenodd" clip-rule="evenodd" d="M15.1098 12.9496C15.4027 12.6568 15.8776 12.6568 16.1705 12.9497L18.6805 15.4597C18.9734 15.7526 18.9734 16.2274 18.6805 16.5203C18.3876 16.8132 17.9127 16.8132 17.6198 16.5203L15.1098 14.0103C14.8169 13.7174 14.8169 13.2425 15.1098 12.9496Z" />
<path fill-rule="evenodd" clip-rule="evenodd" d="M18.6604 12.9797C18.9533 13.2726 18.9533 13.7474 18.6604 14.0403L16.1504 16.5503C15.8576 16.8432 15.3827 16.8432 15.0898 16.5504C14.7969 16.2575 14.7969 15.7826 15.0898 15.4897L17.5998 12.9797C17.8927 12.6868 18.3676 12.6868 18.6604 12.9797Z" />
<path fill-rule="evenodd" clip-rule="evenodd" d="M5.33006 2.75C4.6578 2.75 4.06006 3.30029 4.06006 4.12V6.45001C4.06006 6.60419 4.12011 6.87213 4.26137 7.18567C4.39917 7.49153 4.58117 7.76699 4.75561 7.94492L4.76374 7.95321L4.76368 7.95327L8.60368 11.9933C8.61837 12.0088 8.63239 12.0248 8.64571 12.0415C8.8988 12.3578 9.13578 12.7765 9.31078 13.2111C9.48409 13.6416 9.62006 14.1456 9.62006 14.63V19.98C9.62006 20.9693 10.755 21.5824 11.6002 21.0655L13.0034 20.1598C13.0121 20.1542 13.0209 20.1488 13.0298 20.1435C13.1216 20.0895 13.2651 19.9431 13.3903 19.7014C13.4989 19.4916 13.5562 19.2817 13.5678 19.1267C13.0028 18.7096 12.5336 18.1826 12.178 17.5877C11.6695 16.7543 11.3801 15.7808 11.3801 14.75C11.3801 11.7158 13.8458 9.25 16.8801 9.25C17.1577 9.25 17.4329 9.27061 17.7019 9.3127L19.1617 8.02713C19.3345 7.84522 19.5333 7.55101 19.6899 7.20684C19.853 6.84854 19.9401 6.50245 19.9401 6.23999V4.02002C19.9401 3.32422 19.3658 2.75 18.6701 2.75H5.33006ZM2.56006 4.12C2.56006 2.5197 3.78232 1.25 5.33006 1.25H18.6701C20.1943 1.25 21.4401 2.49582 21.4401 4.02002V6.23999C21.4401 6.78753 21.2721 7.35145 21.0552 7.82816C20.837 8.30752 20.539 8.76523 20.2156 9.09506C20.2028 9.10814 20.1895 9.12075 20.1757 9.13285L18.4157 10.6828C18.2321 10.8446 17.9812 10.9065 17.7434 10.8489C17.4754 10.7839 17.185 10.75 16.8801 10.75C14.6743 10.75 12.8801 12.5442 12.8801 14.75C12.8801 15.4978 13.0898 16.2031 13.46 16.8089L13.4641 16.8156L13.4641 16.8157C13.7753 17.3372 14.2009 17.7773 14.712 18.0905C14.9344 18.2269 15.0701 18.4691 15.0701 18.73V19.07C15.0701 19.522 14.9273 19.9952 14.7223 20.3911C14.5225 20.7771 14.216 21.1805 13.8054 21.4274L12.4068 22.3302L12.3945 22.3379C10.6202 23.435 8.12006 22.2285 8.12006 19.98V14.63C8.12006 14.4044 8.05103 14.0985 7.91934 13.7714C7.79463 13.4617 7.63496 13.1856 7.49247 13.0015L3.68015 8.99058C3.35651 8.65908 3.0851 8.22653 2.89375 7.80181C2.70501 7.38287 2.56006 6.89583 2.56006 6.45001V4.12Z" />
</svg>
